<svg width="422" height="193" viewBox="0 0 422 193" fill="none" xmlns="http://www.w3.org/2000/svg">
<circle cx="37.5" cy="37.5" r="35.5" stroke="black" stroke-width="4"/>
<path d="M29.0723 21.6089C21.4407 24.8423 16.0713 32.3879 16.0713 41.1519C16.0713 52.8488 25.6359 62.3764 37.3782 62.3764C49.1204 62.3764 58.6851 52.8489 58.6851 41.1519C58.6851 32.388 53.3157 24.8423 45.6841 21.6089L42.3718 24.9083C49.3614 27.0266 54.4236 33.4814 54.4236 41.152C54.4236 50.5547 46.8172 58.1316 37.3782 58.1316C27.939 58.1316 20.3327 50.5546 20.3327 41.152C20.3327 33.4814 25.395 27.0266 32.3845 24.9084L29.0723 21.6089Z" fill="black"/>
<path fill-rule="evenodd" clip-rule="evenodd" d="M27.8398 16.2139L30.3253 12.5H33.659L31.1735 16.2139H27.8398ZM33.5217 16.2139L36.007 12.5H38.7492L41.2344 16.2139H33.5217ZM43.583 16.2139L41.0975 12.5H44.4311L46.9167 16.2139H43.583ZM33.8125 23.5785L28.3731 18.1601H31.0927L33.8125 23.5785ZM37.3782 26.3305L33.277 18.1601L41.4793 18.16L37.3782 26.3305ZM40.9439 23.5785L43.6636 18.1601H46.3833L40.9439 23.5785Z" fill="black"/>
<path d="M13.248 144.336C12.544 144.336 11.872 144.224 11.232 144L2.064 109.872C2.512 109.552 3.168 109.296 4.032 109.104C4.928 108.88 5.696 108.816 6.336 108.912L13.776 136.608L21.888 115.584C22.528 115.36 23.216 115.248 23.952 115.248C24.592 115.248 25.248 115.36 25.92 115.584L34.08 136.704L41.52 108.912C42.352 108.816 43.152 108.88 43.92 109.104C44.688 109.296 45.28 109.552 45.696 109.872L36.624 144C35.92 144.224 35.232 144.336 34.56 144.336C33.856 144.336 33.184 144.224 32.544 144L23.904 121.68L15.312 144C14.608 144.224 13.92 144.336 13.248 144.336ZM43.5143 140.64C44.3143 140.384 45.3063 140.016 46.4903 139.536C47.6743 139.024 48.7943 138.496 49.8503 137.952C48.7943 135.904 48.2663 133.536 48.2663 130.848C48.2663 128.864 48.6343 127.12 49.3703 125.616C50.1063 124.08 51.1303 122.88 52.4423 122.016C53.7543 121.12 55.2423 120.672 56.9063 120.672C58.3143 120.672 59.5623 121.008 60.6503 121.68C61.7383 122.32 62.5863 123.216 63.1943 124.368C63.8023 125.52 64.1063 126.848 64.1063 128.352C63.9783 132.192 61.2583 135.824 55.9463 139.248C57.0023 140.144 58.4743 140.592 60.3623 140.592C60.8103 140.592 61.1623 140.784 61.4183 141.168C61.6743 141.552 61.8023 142.064 61.8023 142.704C61.8023 143.312 61.6583 143.792 61.3703 144.144C61.0823 144.496 60.6663 144.672 60.1223 144.672C58.4583 144.672 56.9063 144.384 55.4663 143.808C54.0583 143.2 52.9223 142.368 52.0583 141.312C50.8743 141.92 49.6103 142.512 48.2663 143.088C46.9543 143.632 45.8343 144.048 44.9063 144.336C44.3943 143.888 44.0263 143.36 43.8023 142.752C43.5463 142.144 43.4503 141.44 43.5143 140.64ZM52.4423 130.464C52.4423 132.736 52.8103 134.624 53.5463 136.128C55.7543 134.656 57.3543 133.344 58.3463 132.192C59.3383 131.008 59.8663 129.728 59.9303 128.352C59.9303 127.2 59.6423 126.304 59.0663 125.664C58.5223 124.992 57.7543 124.656 56.7623 124.656C55.5143 124.656 54.4743 125.216 53.6423 126.336C52.8423 127.456 52.4423 128.832 52.4423 130.464ZM59.2286 144.672C58.7806 144.672 58.4286 144.48 58.1726 144.096C57.8846 143.712 57.7406 143.216 57.7406 142.608C57.7406 141.968 57.9006 141.472 58.2206 141.12C58.5406 140.768 58.9566 140.592 59.4686 140.592C61.3886 140.592 63.1486 140.08 64.7486 139.056C66.3806 138 67.7246 136.576 68.7806 134.784C68.7166 134.304 68.6846 133.792 68.6846 133.248C68.6846 130.816 69.1646 128.656 70.1246 126.768C71.0846 124.88 72.3806 123.392 74.0126 122.304C75.6766 121.216 77.5646 120.672 79.6766 120.672C80.7966 120.672 81.9006 120.896 82.9886 121.344C84.0766 121.76 84.9886 122.336 85.7246 123.072V103.68C86.3326 103.456 87.0686 103.344 87.9326 103.344C88.6686 103.344 89.3886 103.456 90.0926 103.68V135.6C90.0926 137.36 90.3166 138.624 90.7646 139.392C91.2446 140.16 91.9966 140.544 93.0206 140.544C93.4686 140.544 93.8046 140.736 94.0286 141.12C94.2846 141.504 94.4126 142.016 94.4126 142.656C94.4126 143.168 94.2686 143.632 93.9806 144.048C93.7246 144.464 93.2926 144.672 92.6846 144.672C89.6446 144.672 87.5966 143.424 86.5406 140.928C85.6126 142.112 84.4926 143.04 83.1806 143.712C81.8686 144.352 80.4126 144.672 78.8126 144.672C76.8926 144.672 75.1966 144.24 73.7246 143.376C72.2846 142.512 71.1326 141.312 70.2686 139.776C68.9246 141.344 67.3086 142.56 65.4206 143.424C63.5326 144.256 61.4686 144.672 59.2286 144.672ZM73.1486 133.248C73.1486 135.52 73.6606 137.312 74.6846 138.624C75.7406 139.904 77.1806 140.544 79.0046 140.544C81.0206 140.544 82.6366 139.856 83.8526 138.48C85.1006 137.104 85.7246 135.296 85.7246 133.056V127.68C85.0846 126.816 84.2686 126.128 83.2766 125.616C82.2846 125.072 81.2606 124.8 80.2046 124.8C78.8286 124.8 77.6126 125.168 76.5566 125.904C75.5006 126.64 74.6686 127.648 74.0606 128.928C73.4526 130.176 73.1486 131.616 73.1486 133.248ZM92.091 140.544C92.763 140.544 93.483 140.336 94.251 139.92C95.019 139.504 95.739 138.864 96.411 138C97.211 136.912 97.787 135.664 98.139 134.256C98.523 132.848 98.763 131.424 98.859 129.984V121.344C99.147 121.248 99.483 121.168 99.867 121.104C100.251 121.04 100.651 121.008 101.067 121.008C101.803 121.008 102.523 121.12 103.227 121.344V135.168C103.227 136.864 103.483 138.192 103.995 139.152C104.539 140.08 105.435 140.544 106.683 140.544C107.227 140.544 107.595 140.768 107.787 141.216C107.979 141.664 108.075 142.144 108.075 142.656C108.075 143.168 107.931 143.632 107.643 144.048C107.387 144.464 106.955 144.672 106.347 144.672C103.019 144.672 100.859 143.104 99.867 139.968C99.419 140.704 98.939 141.328 98.427 141.84C97.563 142.704 96.555 143.392 95.403 143.904C94.283 144.416 93.067 144.672 91.755 144.672C91.307 144.672 90.971 144.448 90.747 144C90.491 143.584 90.363 143.12 90.363 142.608C90.363 142.064 90.507 141.584 90.795 141.168C91.051 140.752 91.483 140.544 92.091 140.544ZM101.115 114.432C100.219 114.432 99.451 114.112 98.811 113.472C98.171 112.832 97.851 112.064 97.851 111.168C97.851 110.208 98.155 109.424 98.763 108.816C99.403 108.208 100.187 107.904 101.115 107.904C102.075 107.904 102.859 108.208 103.467 108.816C104.075 109.424 104.379 110.208 104.379 111.168C104.379 112.096 104.059 112.88 103.419 113.52C102.811 114.128 102.043 114.432 101.115 114.432ZM105.757 140.544C106.557 140.544 107.469 140.304 108.493 139.824C109.549 139.344 110.573 138.528 111.565 137.376C112.557 136.224 113.373 134.672 114.013 132.72C114.653 130.736 114.973 128.256 114.973 125.28V120.672H111.421C111.197 120.16 111.085 119.52 111.085 118.752C111.085 117.984 111.197 117.344 111.421 116.832H114.973V108.336C115.581 108.112 116.317 108 117.181 108C117.949 108 118.685 108.112 119.389 108.336V116.832H126.541C126.797 117.344 126.925 117.984 126.925 118.752C126.925 119.52 126.797 120.16 126.541 120.672H119.389V135.744C119.389 136.512 119.453 137.264 119.581 138C119.741 138.736 120.029 139.36 120.445 139.872C120.861 140.352 121.501 140.592 122.365 140.592C123.229 140.592 123.997 140.368 124.669 139.92C125.373 139.44 125.965 138.976 126.445 138.528C126.957 138.912 127.421 139.392 127.837 139.968C128.253 140.544 128.509 141.12 128.605 141.696C128.317 142.048 127.869 142.464 127.261 142.944C126.653 143.392 125.917 143.792 125.053 144.144C124.189 144.496 123.213 144.672 122.125 144.672C120.205 144.672 118.717 144.144 117.661 143.088C116.637 142.032 115.965 140.656 115.645 138.96C114.301 140.912 112.717 142.352 110.893 143.28C109.101 144.208 107.277 144.672 105.421 144.672C105.005 144.672 104.669 144.464 104.413 144.048C104.157 143.664 104.029 143.184 104.029 142.608C104.029 142 104.173 141.504 104.461 141.12C104.749 140.736 105.181 140.544 105.757 140.544ZM24.5938 158.531V172.844H21.125V170.375H14.3125V167.719H21.125V164.938H14.6875C12.9062 169.25 8.78125 172.062 2.53125 173.469L1.3125 170.625C7.95312 169.25 11.2656 166.328 11.75 162.562H2.875V159.75H15.625C15.625 160.641 15.5469 161.484 15.4375 162.281H21.125V158.531H24.5938ZM24.5938 173.938V181.375H9.5V183.719H25.3438V186.5H6.03125V178.781H21.125V176.688H6V173.938H24.5938ZM53.7358 174.938V177.688H27.9858V174.938H39.1108V173.125C34.2045 172.875 31.4545 171.375 31.4545 168.844C31.4545 166.031 34.8608 164.562 40.8295 164.562C46.7983 164.562 50.2358 166.031 50.2358 168.844C50.2358 171.375 47.4701 172.859 42.5795 173.125V174.938H53.7358ZM50.8295 183.469V186.219H31.1733V179.156H34.642V183.469H50.8295ZM52.3295 160.969V163.594H29.267V160.969H39.1108V158.344H42.5795V160.969H52.3295ZM40.8295 167C36.892 167 34.9858 167.594 35.017 168.844C34.9858 170.094 36.892 170.688 40.8295 170.688C44.7358 170.688 46.6733 170.094 46.6733 168.844C46.6733 167.594 44.7358 167 40.8295 167ZM67.8778 158.969C74.3153 158.969 78.034 160.688 78.0653 163.812C78.034 166.969 74.3153 168.656 67.8778 168.688C61.4403 168.656 57.6903 166.969 57.6903 163.812C57.6903 160.688 61.4403 158.969 67.8778 158.969ZM67.8778 161.531C63.5653 161.531 61.3153 162.344 61.3465 163.812C61.3153 165.375 63.5653 166.094 67.8778 166.094C72.2528 166.094 74.4715 165.375 74.4715 163.812C74.4715 162.344 72.2528 161.531 67.8778 161.531ZM80.784 170.188V172.969H55.034V170.188H80.784ZM77.5653 174.875V181.781H61.5028V183.875H78.3465V186.531H58.0965V179.312H74.159V177.438H58.0653V174.875H77.5653ZM111.349 158.531V166.656H115.287V169.562H111.349V178.906H107.818V158.531H111.349ZM103.662 160.688C103.662 168.188 98.7868 173.531 90.4118 175.969L88.9743 173.219C95.4274 171.359 99.2711 167.844 99.8805 163.531H90.1618V160.688H103.662ZM112.412 183.406V186.219H93.193V176.812H96.7243V183.406H112.412ZM139.772 158.531V179.406H136.304V172.031H132.304V169.156H136.304V166.469H132.304V163.656H136.304V158.531H139.772ZM131.897 160.656V163.438H129.397V172.438C130.46 172.375 131.491 172.297 132.491 172.188L132.647 174.719C127.304 175.594 121.022 175.688 116.522 175.688L116.147 172.812L119.335 172.781V163.438H116.866V160.656H131.897ZM140.491 183.406V186.219H121.21V177.781H124.71V183.406H140.491ZM122.71 172.75L126.054 172.625V163.438H122.71V172.75ZM165.29 158.531V169.781H169.633V172.656H165.29V186.781H161.852V158.531H165.29ZM159.665 162.875V165.656H143.008V162.875H149.696V158.938H153.165V162.875H159.665ZM151.446 167.5C155.508 167.5 158.54 170.25 158.54 174.156C158.54 178.062 155.508 180.781 151.446 180.781C147.321 180.781 144.29 178.062 144.321 174.156C144.29 170.25 147.321 167.5 151.446 167.5ZM151.446 170.344C149.227 170.344 147.633 171.844 147.633 174.156C147.633 176.469 149.227 177.938 151.446 177.906C153.602 177.938 155.196 176.469 155.227 174.156C155.196 171.844 153.602 170.344 151.446 170.344ZM194.588 158.531V186.781H191.275V158.531H194.588ZM188.588 159.219V185.438H185.307V172.438H180.275C178.619 175.688 175.963 178.5 171.963 180.812L169.994 178.344C175.853 174.891 178.525 170.469 179.057 164.781H171.432V161.969H182.494C182.494 164.703 182.166 167.266 181.4 169.656H185.307V159.219H188.588ZM202.761 181.781L200.136 190.531H197.167L198.792 181.781H202.761ZM237.607 180.594V183.438H211.795V180.594H222.951V174.75H226.389V180.594H237.607ZM235.295 162.625V165.438H226.482C226.717 168.953 230.389 172.188 236.482 173L235.201 175.719C230.311 175.031 226.545 172.859 224.67 169.75C222.795 172.859 219.061 175.031 214.17 175.719L212.857 173C218.982 172.188 222.639 168.953 222.92 165.438H214.076V162.625H222.951V158.969H226.389V162.625H235.295ZM263.156 158.531V186.781H259.843V172.375H256.656V185.344H253.468V159.062H256.656V169.594H259.843V158.531H263.156ZM250.281 161.875V164.688H243.218V177.25C246.296 177.219 248.828 177.062 251.687 176.531L251.937 179.375C248.531 180.062 245.562 180.156 241.624 180.188H239.718V161.875H250.281ZM291.673 171.344V173.969H265.86V171.344H291.673ZM288.548 175.656V182.094H272.36V184.062H289.392V186.469H268.892V179.844H285.11V178.094H268.86V175.656H288.548ZM288.485 159.156V165.531H272.579V167.375H288.985V169.75H269.142V163.281H285.017V161.562H269.048V159.156H288.485ZM325.676 173.312V176.031H299.863V173.312H325.676ZM322.426 178.188V186.781H318.926V180.969H302.769V178.188H322.426ZM322.801 168.562V171.219H303.176V159.219H322.582V161.938H306.644V163.875H321.894V166.469H306.644V168.562H322.801ZM350.63 158.531V173.125H347.161V170.062H341.474V172.219H328.255V159.781H331.724V163.344H338.036V159.781H341.474V162.281H347.161V158.531H350.63ZM350.63 174.281V181.531H335.505V183.688H351.536V186.438H332.036V178.969H347.161V177H332.005V174.281H350.63ZM331.724 169.469H338.036V166H331.724V169.469ZM341.474 167.406H347.161V164.906H341.474V167.406ZM376.147 158.531V169.781H380.491V172.656H376.147V186.781H372.71V158.531H376.147ZM370.522 162.875V165.656H353.866V162.875H360.553V158.938H364.022V162.875H370.522ZM362.303 167.5C366.366 167.5 369.397 170.25 369.397 174.156C369.397 178.062 366.366 180.781 362.303 180.781C358.178 180.781 355.147 178.062 355.178 174.156C355.147 170.25 358.178 167.5 362.303 167.5ZM362.303 170.344C360.085 170.344 358.491 171.844 358.491 174.156C358.491 176.469 360.085 177.938 362.303 177.906C364.46 177.938 366.053 176.469 366.085 174.156C366.053 171.844 364.46 170.344 362.303 170.344ZM405.445 158.531V186.781H402.133V158.531H405.445ZM399.445 159.219V185.438H396.164V172.438H391.133C389.477 175.688 386.82 178.5 382.82 180.812L380.852 178.344C386.711 174.891 389.383 170.469 389.914 164.781H382.289V161.969H393.352C393.352 164.703 393.023 167.266 392.258 169.656H396.164V159.219H399.445Z" fill="black"/>
</svg>
