<svg width="240" height="210" viewBox="0 0 240 210" fill="none" xmlns="http://www.w3.org/2000/svg">
<path id="vector" fill-rule="evenodd" clip-rule="evenodd" d="M88.9157 11.0526C74.6967 11.0526 63.1699 23.4237 63.1699 38.6842C63.1699 53.9447 74.6967 66.3158 88.9157 66.3158C103.135 66.3158 114.661 53.9447 114.661 38.6842C114.661 23.4237 103.135 11.0526 88.9157 11.0526ZM52.8716 38.6842C52.8716 17.3195 69.0091 0 88.9157 0C108.822 0 124.96 17.3195 124.96 38.6842C124.96 60.0489 108.822 77.3684 88.9157 77.3684C69.0091 77.3684 52.8716 60.0489 52.8716 38.6842ZM167.19 87.4771C165.311 84.3409 161.138 84.0601 158.909 86.92L106.106 154.677C105.187 155.857 103.85 156.573 102.419 156.651C100.988 156.73 99.5906 156.164 98.5638 155.091L63.3071 118.24C60.9992 115.827 57.2172 116.256 55.4302 119.133L11.1891 190.356C8.90782 194.028 11.3608 198.947 15.4734 198.947H224.527C228.601 198.947 231.062 194.11 228.859 190.433L167.19 87.4771ZM151.009 79.8291C157.695 71.2493 170.217 72.0916 175.853 81.5003L237.521 184.456C244.13 195.489 236.749 210 224.527 210H15.4734C3.13562 210 -4.22342 195.242 2.62037 184.225L46.8615 113.002C52.2226 104.372 63.5683 103.084 70.4922 110.322L101.77 143.014L151.009 79.8291Z" fill="white"/>
</svg>
