<svg 
    xmlns="http://www.w3.org/2000/svg" 
    width="86" 
    height="28" 
    fill="none" 
    viewBox="0 0 86 28"
>
    <path fill="black" d="M8.298 27.724C7.82867 27.724 7.38067 27.6493 6.954 27.5L0.842 4.748C1.14067 4.53467 1.578 4.364 2.154 4.236C2.75133 4.08667 3.26333 4.044 3.69 4.108L8.65 22.572L14.058 8.556C14.4847 8.40667 14.9433 8.332 15.434 8.332C15.8607 8.332 16.298 8.40667 16.746 8.556L22.186 22.636L27.146 4.108C27.7007 4.044 28.234 4.08667 28.746 4.236C29.258 4.364 29.6527 4.53467 29.93 4.748L23.882 27.5C23.4127 27.6493 22.954 27.724 22.506 27.724C22.0367 27.724 21.5887 27.6493 21.162 27.5L15.402 12.62L9.674 27.5C9.20467 27.6493 8.746 27.724 8.298 27.724ZM28.4755 25.26C29.0088 25.0893 29.6702 24.844 30.4595 24.524C31.2488 24.1827 31.9955 23.8307 32.6995 23.468C31.9955 22.1027 31.6435 20.524 31.6435 18.732C31.6435 17.4093 31.8888 16.2467 32.3795 15.244C32.8702 14.22 33.5528 13.42 34.4275 12.844C35.3022 12.2467 36.2942 11.948 37.4035 11.948C38.3422 11.948 39.1742 12.172 39.8995 12.62C40.6248 13.0467 41.1902 13.644 41.5955 14.412C42.0008 15.18 42.2035 16.0653 42.2035 17.068C42.1182 19.628 40.3048 22.0493 36.7635 24.332C37.4675 24.9293 38.4488 25.228 39.7075 25.228C40.0062 25.228 40.2408 25.356 40.4115 25.612C40.5822 25.868 40.6675 26.2093 40.6675 26.636C40.6675 27.0413 40.5715 27.3613 40.3795 27.596C40.1875 27.8307 39.9102 27.948 39.5475 27.948C38.4382 27.948 37.4035 27.756 36.4435 27.372C35.5048 26.9667 34.7475 26.412 34.1715 25.708C33.3822 26.1133 32.5395 26.508 31.6435 26.892C30.7688 27.2547 30.0222 27.532 29.4035 27.724C29.0622 27.4253 28.8168 27.0733 28.6675 26.668C28.4968 26.2627 28.4328 25.7933 28.4755 25.26ZM34.4275 18.476C34.4275 19.9907 34.6728 21.2493 35.1635 22.252C36.6355 21.2707 37.7022 20.396 38.3635 19.628C39.0248 18.8387 39.3768 17.9853 39.4195 17.068C39.4195 16.3 39.2275 15.7027 38.8435 15.276C38.4808 14.828 37.9688 14.604 37.3075 14.604C36.4755 14.604 35.7822 14.9773 35.2275 15.724C34.6942 16.4707 34.4275 17.388 34.4275 18.476ZM38.9517 27.948C38.6531 27.948 38.4184 27.82 38.2477 27.564C38.0557 27.308 37.9597 26.9773 37.9597 26.572C37.9597 26.1453 38.0664 25.8147 38.2797 25.58C38.4931 25.3453 38.7704 25.228 39.1117 25.228C40.3917 25.228 41.5651 24.8867 42.6318 24.204C43.7198 23.5 44.6158 22.5507 45.3198 21.356C45.2771 21.036 45.2558 20.6947 45.2558 20.332C45.2558 18.7107 45.5758 17.2707 46.2158 16.012C46.8558 14.7533 47.7198 13.7613 48.8078 13.036C49.9171 12.3107 51.1758 11.948 52.5838 11.948C53.3304 11.948 54.0664 12.0973 54.7918 12.396C55.5171 12.6733 56.1251 13.0573 56.6158 13.548V0.619999C57.0211 0.470665 57.5118 0.395998 58.0878 0.395998C58.5784 0.395998 59.0584 0.470665 59.5278 0.619999V21.9C59.5278 23.0733 59.6771 23.916 59.9757 24.428C60.2958 24.94 60.7971 25.196 61.4798 25.196C61.7784 25.196 62.0024 25.324 62.1518 25.58C62.3224 25.836 62.4078 26.1773 62.4078 26.604C62.4078 26.9453 62.3118 27.2547 62.1198 27.532C61.9491 27.8093 61.6611 27.948 61.2558 27.948C59.2291 27.948 57.8638 27.116 57.1598 25.452C56.5411 26.2413 55.7944 26.86 54.9198 27.308C54.0451 27.7347 53.0744 27.948 52.0078 27.948C50.7278 27.948 49.5971 27.66 48.6158 27.084C47.6558 26.508 46.8878 25.708 46.3118 24.684C45.4158 25.7293 44.3384 26.54 43.0798 27.116C41.8211 27.6707 40.4451 27.948 38.9517 27.948ZM48.2318 20.332C48.2318 21.8467 48.5731 23.0413 49.2558 23.916C49.9598 24.7693 50.9198 25.196 52.1358 25.196C53.4798 25.196 54.5571 24.7373 55.3678 23.82C56.1998 22.9027 56.6158 21.6973 56.6158 20.204V16.62C56.1891 16.044 55.6451 15.5853 54.9838 15.244C54.3224 14.8813 53.6398 14.7 52.9358 14.7C52.0184 14.7 51.2078 14.9453 50.5038 15.436C49.7998 15.9267 49.2451 16.5987 48.8398 17.452C48.4344 18.284 48.2318 19.244 48.2318 20.332ZM60.86 25.196C61.308 25.196 61.788 25.0573 62.3 24.78C62.812 24.5027 63.292 24.076 63.74 23.5C64.2733 22.7747 64.6573 21.9427 64.892 21.004C65.148 20.0653 65.308 19.116 65.372 18.156V12.396C65.564 12.332 65.788 12.2787 66.044 12.236C66.3 12.1933 66.5667 12.172 66.844 12.172C67.3347 12.172 67.8147 12.2467 68.284 12.396V21.612C68.284 22.7427 68.4547 23.628 68.796 24.268C69.1587 24.8867 69.756 25.196 70.588 25.196C70.9507 25.196 71.196 25.3453 71.324 25.644C71.452 25.9427 71.516 26.2627 71.516 26.604C71.516 26.9453 71.42 27.2547 71.228 27.532C71.0573 27.8093 70.7693 27.948 70.364 27.948C68.1453 27.948 66.7053 26.9027 66.044 24.812C65.7453 25.3027 65.4253 25.7187 65.084 26.06C64.508 26.636 63.836 27.0947 63.068 27.436C62.3213 27.7773 61.5107 27.948 60.636 27.948C60.3373 27.948 60.1133 27.7987 59.964 27.5C59.7933 27.2227 59.708 26.9133 59.708 26.572C59.708 26.2093 59.804 25.8893 59.996 25.612C60.1667 25.3347 60.4547 25.196 60.86 25.196ZM66.876 7.788C66.2787 7.788 65.7667 7.57467 65.34 7.148C64.9133 6.72133 64.7 6.20933 64.7 5.612C64.7 4.972 64.9027 4.44933 65.308 4.044C65.7347 3.63867 66.2573 3.436 66.876 3.436C67.516 3.436 68.0387 3.63867 68.444 4.044C68.8493 4.44933 69.052 4.972 69.052 5.612C69.052 6.23067 68.8387 6.75333 68.412 7.18C68.0067 7.58533 67.4947 7.788 66.876 7.788ZM69.9707 25.196C70.5041 25.196 71.1121 25.036 71.7947 24.716C72.4987 24.396 73.1814 23.852 73.8427 23.084C74.5041 22.316 75.0481 21.2813 75.4747 19.98C75.9014 18.6573 76.1147 17.004 76.1147 15.02V11.948H73.7467C73.5974 11.6067 73.5227 11.18 73.5227 10.668C73.5227 10.156 73.5974 9.72933 73.7467 9.388H76.1147V3.724C76.5201 3.57467 77.0107 3.5 77.5867 3.5C78.0987 3.5 78.5894 3.57467 79.0587 3.724V9.388H83.8267C83.9974 9.72933 84.0827 10.156 84.0827 10.668C84.0827 11.18 83.9974 11.6067 83.8267 11.948H79.0587V21.996C79.0587 22.508 79.1014 23.0093 79.1867 23.5C79.2934 23.9907 79.4854 24.4067 79.7627 24.748C80.0401 25.068 80.4667 25.228 81.0427 25.228C81.6187 25.228 82.1307 25.0787 82.5787 24.78C83.0481 24.46 83.4427 24.1507 83.7627 23.852C84.1041 24.108 84.4134 24.428 84.6907 24.812C84.9681 25.196 85.1387 25.58 85.2027 25.964C85.0107 26.1987 84.7121 26.476 84.3067 26.796C83.9014 27.0947 83.4107 27.3613 82.8347 27.596C82.2587 27.8307 81.6081 27.948 80.8827 27.948C79.6027 27.948 78.6107 27.596 77.9067 26.892C77.2241 26.188 76.7761 25.2707 76.5627 24.14C75.6667 25.4413 74.6107 26.4013 73.3947 27.02C72.2001 27.6387 70.9841 27.948 69.7467 27.948C69.4694 27.948 69.2454 27.8093 69.0747 27.532C68.9041 27.276 68.8187 26.956 68.8187 26.572C68.8187 26.1667 68.9147 25.836 69.1067 25.58C69.2987 25.324 69.5867 25.196 69.9707 25.196Z"/>
</svg>