<svg width="422" height="144" viewBox="0 0 422 144" fill="none" xmlns="http://www.w3.org/2000/svg">
<circle cx="211" cy="26.4136" r="24.9136" stroke="black" stroke-width="3"/>
<path d="M205.064 15.2206C199.689 17.4981 195.907 22.813 195.907 28.986C195.907 37.2249 202.644 43.9357 210.914 43.9357C219.185 43.9357 225.922 37.2249 225.922 28.986C225.922 22.8131 222.14 17.4981 216.765 15.2206L214.432 17.5446C219.355 19.0367 222.92 23.5832 222.92 28.9861C222.92 35.609 217.563 40.9459 210.914 40.9459C204.266 40.9459 198.908 35.6089 198.908 28.9861C198.908 23.5832 202.474 19.0367 207.397 17.5447L205.064 15.2206Z" fill="black"/>
<path fill-rule="evenodd" clip-rule="evenodd" d="M204.196 11.4206L205.947 8.80469H208.295L206.544 11.4206H204.196ZM208.198 11.4206L209.949 8.80469H211.88L213.631 11.4206H208.198ZM215.285 11.4206L213.534 8.80469H215.882L217.633 11.4206H215.285ZM208.403 16.6079L204.571 12.7914H206.487L208.403 16.6079ZM210.914 18.5464L208.026 12.7914L213.803 12.7913L210.914 18.5464ZM213.426 16.6079L215.342 12.7914H217.257L213.426 16.6079Z" fill="black"/>
<path d="M169.812 93.0511C169.343 93.0511 168.895 92.9765 168.468 92.8271L162.356 70.0751C162.655 69.8618 163.092 69.6911 163.668 69.5631C164.266 69.4138 164.778 69.3711 165.204 69.4351L170.164 87.8991L175.572 73.8831C175.999 73.7338 176.458 73.6591 176.948 73.6591C177.375 73.6591 177.812 73.7338 178.26 73.8831L183.7 87.9631L188.66 69.4351C189.215 69.3711 189.748 69.4138 190.26 69.5631C190.772 69.6911 191.167 69.8618 191.444 70.0751L185.396 92.8271C184.927 92.9765 184.468 93.0511 184.02 93.0511C183.551 93.0511 183.103 92.9765 182.676 92.8271L176.916 77.9471L171.188 92.8271C170.719 92.9765 170.26 93.0511 169.812 93.0511ZM189.99 90.5871C190.523 90.4165 191.184 90.1711 191.974 89.8511C192.763 89.5098 193.51 89.1578 194.214 88.7951C193.51 87.4298 193.158 85.8511 193.158 84.0591C193.158 82.7365 193.403 81.5738 193.894 80.5711C194.384 79.5471 195.067 78.7471 195.942 78.1711C196.816 77.5738 197.808 77.2751 198.918 77.2751C199.856 77.2751 200.688 77.4991 201.414 77.9471C202.139 78.3738 202.704 78.9711 203.11 79.7391C203.515 80.5071 203.718 81.3925 203.718 82.3951C203.632 84.9551 201.819 87.3765 198.278 89.6591C198.982 90.2565 199.963 90.5551 201.222 90.5551C201.52 90.5551 201.755 90.6831 201.926 90.9391C202.096 91.1951 202.182 91.5365 202.182 91.9631C202.182 92.3685 202.086 92.6885 201.894 92.9231C201.702 93.1578 201.424 93.2751 201.062 93.2751C199.952 93.2751 198.918 93.0831 197.958 92.6991C197.019 92.2938 196.262 91.7391 195.686 91.0351C194.896 91.4405 194.054 91.8351 193.158 92.2191C192.283 92.5818 191.536 92.8591 190.918 93.0511C190.576 92.7525 190.331 92.4005 190.182 91.9951C190.011 91.5898 189.947 91.1205 189.99 90.5871ZM195.942 83.8031C195.942 85.3178 196.187 86.5765 196.678 87.5791C198.15 86.5978 199.216 85.7231 199.878 84.9551C200.539 84.1658 200.891 83.3125 200.934 82.3951C200.934 81.6271 200.742 81.0298 200.358 80.6031C199.995 80.1551 199.483 79.9311 198.822 79.9311C197.99 79.9311 197.296 80.3045 196.742 81.0511C196.208 81.7978 195.942 82.7151 195.942 83.8031ZM200.466 93.2751C200.167 93.2751 199.933 93.1471 199.762 92.8911C199.57 92.6351 199.474 92.3045 199.474 91.8991C199.474 91.4725 199.581 91.1418 199.794 90.9071C200.007 90.6725 200.285 90.5551 200.626 90.5551C201.906 90.5551 203.079 90.2138 204.146 89.5311C205.234 88.8271 206.13 87.8778 206.834 86.6831C206.791 86.3631 206.77 86.0218 206.77 85.6591C206.77 84.0378 207.09 82.5978 207.73 81.3391C208.37 80.0805 209.234 79.0885 210.322 78.3631C211.431 77.6378 212.69 77.2751 214.098 77.2751C214.845 77.2751 215.581 77.4245 216.306 77.7231C217.031 78.0005 217.639 78.3845 218.13 78.8751V65.9471C218.535 65.7978 219.026 65.7231 219.602 65.7231C220.093 65.7231 220.573 65.7978 221.042 65.9471V87.2271C221.042 88.4005 221.191 89.2431 221.49 89.7551C221.81 90.2671 222.311 90.5231 222.994 90.5231C223.293 90.5231 223.517 90.6511 223.666 90.9071C223.837 91.1631 223.922 91.5045 223.922 91.9311C223.922 92.2725 223.826 92.5818 223.634 92.8591C223.463 93.1365 223.175 93.2751 222.77 93.2751C220.743 93.2751 219.378 92.4431 218.674 90.7791C218.055 91.5685 217.309 92.1871 216.434 92.6351C215.559 93.0618 214.589 93.2751 213.522 93.2751C212.242 93.2751 211.111 92.9871 210.13 92.4111C209.17 91.8351 208.402 91.0351 207.826 90.0111C206.93 91.0565 205.853 91.8671 204.594 92.4431C203.335 92.9978 201.959 93.2751 200.466 93.2751ZM209.746 85.6591C209.746 87.1738 210.087 88.3685 210.77 89.2431C211.474 90.0965 212.434 90.5231 213.65 90.5231C214.994 90.5231 216.071 90.0645 216.882 89.1471C217.714 88.2298 218.13 87.0245 218.13 85.5311V81.9471C217.703 81.3711 217.159 80.9125 216.498 80.5711C215.837 80.2085 215.154 80.0271 214.45 80.0271C213.533 80.0271 212.722 80.2725 212.018 80.7631C211.314 81.2538 210.759 81.9258 210.354 82.7791C209.949 83.6111 209.746 84.5711 209.746 85.6591ZM222.374 90.5231C222.822 90.5231 223.302 90.3845 223.814 90.1071C224.326 89.8298 224.806 89.4031 225.254 88.8271C225.788 88.1018 226.172 87.2698 226.406 86.3311C226.662 85.3925 226.822 84.4431 226.886 83.4831V77.7231C227.078 77.6591 227.302 77.6058 227.558 77.5631C227.814 77.5205 228.081 77.4991 228.358 77.4991C228.849 77.4991 229.329 77.5738 229.798 77.7231V86.9391C229.798 88.0698 229.969 88.9551 230.31 89.5951C230.673 90.2138 231.27 90.5231 232.102 90.5231C232.465 90.5231 232.71 90.6725 232.838 90.9711C232.966 91.2698 233.03 91.5898 233.03 91.9311C233.03 92.2725 232.934 92.5818 232.742 92.8591C232.572 93.1365 232.284 93.2751 231.878 93.2751C229.66 93.2751 228.22 92.2298 227.558 90.1391C227.26 90.6298 226.94 91.0458 226.598 91.3871C226.022 91.9631 225.35 92.4218 224.582 92.7631C223.836 93.1045 223.025 93.2751 222.15 93.2751C221.852 93.2751 221.628 93.1258 221.478 92.8271C221.308 92.5498 221.222 92.2405 221.222 91.8991C221.222 91.5365 221.318 91.2165 221.51 90.9391C221.681 90.6618 221.969 90.5231 222.374 90.5231ZM228.39 73.1151C227.793 73.1151 227.281 72.9018 226.854 72.4751C226.428 72.0485 226.214 71.5365 226.214 70.9391C226.214 70.2991 226.417 69.7765 226.822 69.3711C227.249 68.9658 227.772 68.7631 228.39 68.7631C229.03 68.7631 229.553 68.9658 229.958 69.3711C230.364 69.7765 230.566 70.2991 230.566 70.9391C230.566 71.5578 230.353 72.0805 229.926 72.5071C229.521 72.9125 229.009 73.1151 228.39 73.1151ZM231.485 90.5231C232.018 90.5231 232.626 90.3631 233.309 90.0431C234.013 89.7231 234.696 89.1791 235.357 88.4111C236.018 87.6431 236.562 86.6085 236.989 85.3071C237.416 83.9845 237.629 82.3311 237.629 80.3471V77.2751H235.261C235.112 76.9338 235.037 76.5071 235.037 75.9951C235.037 75.4831 235.112 75.0565 235.261 74.7151H237.629V69.0511C238.034 68.9018 238.525 68.8271 239.101 68.8271C239.613 68.8271 240.104 68.9018 240.573 69.0511V74.7151H245.341C245.512 75.0565 245.597 75.4831 245.597 75.9951C245.597 76.5071 245.512 76.9338 245.341 77.2751H240.573V87.3231C240.573 87.8351 240.616 88.3365 240.701 88.8271C240.808 89.3178 241 89.7338 241.277 90.0751C241.554 90.3951 241.981 90.5551 242.557 90.5551C243.133 90.5551 243.645 90.4058 244.093 90.1071C244.562 89.7871 244.957 89.4778 245.277 89.1791C245.618 89.4351 245.928 89.7551 246.205 90.1391C246.482 90.5231 246.653 90.9071 246.717 91.2911C246.525 91.5258 246.226 91.8031 245.821 92.1231C245.416 92.4218 244.925 92.6885 244.349 92.9231C243.773 93.1578 243.122 93.2751 242.397 93.2751C241.117 93.2751 240.125 92.9231 239.421 92.2191C238.738 91.5151 238.29 90.5978 238.077 89.4671C237.181 90.7685 236.125 91.7285 234.909 92.3471C233.714 92.9658 232.498 93.2751 231.261 93.2751C230.984 93.2751 230.76 93.1365 230.589 92.8591C230.418 92.6031 230.333 92.2831 230.333 91.8991C230.333 91.4938 230.429 91.1631 230.621 90.9071C230.813 90.6511 231.101 90.5231 231.485 90.5231ZM76.5244 124.46H73.9229V122.608H68.8135V120.616H73.9229V118.53H69.083C67.7784 121.726 64.7432 123.858 59.9776 124.929L59.0635 122.796C61.4932 122.296 63.3565 121.526 64.6534 120.487C65.958 119.448 66.7041 118.202 66.8916 116.749H60.2354V114.64H69.7979C69.7979 115.257 69.7471 115.89 69.6455 116.538H73.9229V113.726H76.5244V124.46ZM76.5244 130.858H65.2041V132.616H77.0869V134.702H62.6026V128.913H73.9229V127.343H62.5791V125.28H76.5244V130.858ZM98.3809 128.093H79.0684V126.03H87.4122V124.683C85.5606 124.581 84.1388 124.257 83.1466 123.71C82.1622 123.155 81.67 122.405 81.67 121.46C81.67 120.413 82.2755 119.616 83.4864 119.069C84.7052 118.522 86.4434 118.249 88.7013 118.249C90.9591 118.249 92.6973 118.522 93.9161 119.069C95.1427 119.616 95.7559 120.413 95.7559 121.46C95.7559 122.405 95.2598 123.151 94.2677 123.698C93.2755 124.245 91.8575 124.573 90.0138 124.683V126.03H98.3809V128.093ZM96.2013 134.491H81.4591V129.194H84.0606V132.429H96.2013V134.491ZM97.3263 117.522H80.0294V115.554H87.4122V113.585H90.0138V115.554H97.3263V117.522ZM88.7013 120.077C87.2247 120.077 86.127 120.19 85.4083 120.417C84.6895 120.644 84.3341 120.991 84.3419 121.46C84.3341 121.929 84.6895 122.276 85.4083 122.503C86.127 122.729 87.2247 122.843 88.7013 122.843C90.17 122.843 91.2677 122.729 91.9942 122.503C92.7208 122.276 93.0841 121.929 93.0841 121.46C93.0841 120.991 92.7208 120.644 91.9942 120.417C91.2677 120.19 90.17 120.077 88.7013 120.077ZM108.987 114.054C110.597 114.054 111.968 114.194 113.101 114.476C114.241 114.757 115.112 115.171 115.714 115.718C116.316 116.257 116.62 116.913 116.628 117.687C116.62 118.858 115.952 119.757 114.624 120.382C113.296 121.007 111.417 121.327 108.987 121.343C106.55 121.327 104.667 121.007 103.339 120.382C102.011 119.757 101.347 118.858 101.347 117.687C101.347 116.913 101.648 116.257 102.249 115.718C102.851 115.171 103.722 114.757 104.862 114.476C106.003 114.194 107.378 114.054 108.987 114.054ZM108.987 115.976C107.378 115.976 106.155 116.124 105.319 116.421C104.484 116.71 104.073 117.132 104.089 117.687C104.081 118.265 104.487 118.694 105.308 118.976C106.128 119.257 107.355 119.397 108.987 119.397C110.644 119.397 111.882 119.257 112.702 118.976C113.523 118.694 113.933 118.265 113.933 117.687C113.933 117.132 113.515 116.71 112.679 116.421C111.843 116.124 110.612 115.976 108.987 115.976ZM118.667 124.554H99.3546V122.468H118.667V124.554ZM116.253 131.163H104.206V132.733H116.839V134.726H101.652V129.312H113.698V127.905H101.628V125.983H116.253V131.163ZM141.591 119.819H144.544V121.999H141.591V129.007H138.943V113.726H141.591V119.819ZM135.825 115.343C135.825 117.202 135.435 118.886 134.654 120.394C133.872 121.894 132.74 123.187 131.255 124.272C129.779 125.351 127.99 126.194 125.888 126.804L124.81 124.741C126.411 124.28 127.794 123.69 128.958 122.972C130.13 122.245 131.056 121.417 131.736 120.487C132.415 119.558 132.829 118.554 132.978 117.476H125.7V115.343H135.825ZM142.388 134.491H127.974V127.437H130.622V132.382H142.388V134.491ZM162.909 129.382H160.307V123.851H157.307V121.694H160.307V119.679H157.307V117.569H160.307V113.726H162.909V129.382ZM157.002 117.405H155.127V124.167C156.143 124.089 156.916 124.022 157.448 123.968L157.565 125.866C155.784 126.155 153.877 126.351 151.846 126.452C149.823 126.546 147.698 126.593 145.471 126.593L145.19 124.437L147.58 124.425V117.405H145.729V115.319H157.002V117.405ZM163.448 134.491H148.987V128.163H151.612V132.382H163.448V134.491ZM152.619 124.308V117.405H150.112V124.39L152.619 124.308ZM182.046 122.163H185.304V124.319H182.046V134.913H179.468V113.726H182.046V122.163ZM177.828 119.069H165.335V116.983H170.351V114.03H172.953V116.983H177.828V119.069ZM171.663 120.452C172.671 120.452 173.578 120.667 174.382 121.097C175.195 121.519 175.831 122.108 176.292 122.866C176.753 123.624 176.984 124.483 176.984 125.444C176.984 126.405 176.753 127.265 176.292 128.022C175.831 128.772 175.195 129.358 174.382 129.78C173.578 130.202 172.671 130.413 171.663 130.413C170.64 130.413 169.722 130.202 168.91 129.78C168.097 129.358 167.46 128.772 166.999 128.022C166.538 127.265 166.312 126.405 166.32 125.444C166.312 124.483 166.538 123.624 166.999 122.866C167.46 122.108 168.097 121.519 168.91 121.097C169.722 120.667 170.64 120.452 171.663 120.452ZM171.663 122.585C171.109 122.585 170.613 122.702 170.175 122.937C169.745 123.171 169.41 123.507 169.167 123.944C168.925 124.374 168.804 124.874 168.804 125.444C168.804 126.015 168.925 126.515 169.167 126.944C169.41 127.366 169.745 127.694 170.175 127.929C170.613 128.155 171.109 128.265 171.663 128.257C172.203 128.265 172.683 128.155 173.105 127.929C173.535 127.694 173.87 127.366 174.113 126.944C174.363 126.515 174.492 126.015 174.499 125.444C174.492 124.874 174.363 124.374 174.113 123.944C173.87 123.515 173.535 123.183 173.105 122.948C172.683 122.706 172.203 122.585 171.663 122.585ZM204.02 134.913H201.536V113.726H204.02V134.913ZM199.52 133.905H197.059V124.155H193.274C192 126.679 189.926 128.772 187.051 130.437L185.575 128.585C187.731 127.319 189.352 125.854 190.438 124.19C191.524 122.519 192.168 120.593 192.372 118.413H186.653V116.304H194.95C194.95 118.437 194.676 120.358 194.129 122.069H197.059V114.241H199.52V133.905ZM208.181 137.726H205.955L207.173 131.163H210.15L208.181 137.726ZM236.285 132.405H216.925V130.272H225.293V125.89H227.871V130.272H236.285V132.405ZM234.55 118.905H227.929C227.992 119.796 228.332 120.636 228.949 121.425C229.574 122.214 230.441 122.89 231.55 123.452C232.66 124.007 233.957 124.382 235.441 124.577L234.48 126.616C232.652 126.358 231.054 125.843 229.687 125.069C228.32 124.288 227.285 123.315 226.582 122.151C225.871 123.315 224.836 124.288 223.476 125.069C222.117 125.843 220.527 126.358 218.707 126.616L217.722 124.577C219.214 124.382 220.515 124.007 221.625 123.452C222.742 122.89 223.609 122.214 224.226 121.425C224.843 120.636 225.187 119.796 225.257 118.905H218.636V116.796H225.293V114.054H227.871V116.796H234.55V118.905ZM255.446 134.913H252.962V124.108H250.571V133.835H248.18V114.124H250.571V122.022H252.962V113.726H255.446V134.913ZM245.79 118.343H240.493V127.765C241.727 127.749 242.84 127.702 243.833 127.624C244.825 127.546 245.829 127.413 246.844 127.226L247.032 129.358C245.86 129.593 244.704 129.749 243.563 129.827C242.423 129.905 241.001 129.952 239.298 129.968H237.868V116.233H245.79V118.343ZM276.834 125.304H257.474V123.335H276.834V125.304ZM274.49 131.397H262.349V132.874H275.123V134.679H259.748V129.71H271.912V128.397H259.724V126.569H274.49V131.397ZM274.443 118.976H262.513V120.358H274.818V122.14H259.935V117.288H271.841V115.999H259.865V114.194H274.443V118.976ZM302.336 126.851H282.976V124.812H302.336V126.851ZM299.898 134.913H297.273V130.554H285.156V128.468H299.898V134.913ZM300.18 123.241H285.461V114.241H300.015V116.28H288.062V117.733H299.5V119.679H288.062V121.249H300.18V123.241ZM321.052 124.671H318.45V122.374H314.184V123.991H304.27V114.663H306.872V117.335H311.606V114.663H314.184V116.538H318.45V113.726H321.052V124.671ZM321.052 130.976H309.708V132.593H321.731V134.655H307.106V129.054H318.45V127.577H307.083V125.538H321.052V130.976ZM311.606 121.929V119.327H306.872V121.929H311.606ZM318.45 120.382V118.507H314.184V120.382H318.45ZM340.189 122.163H343.447V124.319H340.189V134.913H337.611V113.726H340.189V122.163ZM335.971 119.069H323.478V116.983H328.494V114.03H331.096V116.983H335.971V119.069ZM329.807 120.452C330.814 120.452 331.721 120.667 332.525 121.097C333.338 121.519 333.975 122.108 334.435 122.866C334.896 123.624 335.127 124.483 335.127 125.444C335.127 126.405 334.896 127.265 334.435 128.022C333.975 128.772 333.338 129.358 332.525 129.78C331.721 130.202 330.814 130.413 329.807 130.413C328.783 130.413 327.865 130.202 327.053 129.78C326.24 129.358 325.603 128.772 325.143 128.022C324.682 127.265 324.455 126.405 324.463 125.444C324.455 124.483 324.682 123.624 325.143 122.866C325.603 122.108 326.24 121.519 327.053 121.097C327.865 120.667 328.783 120.452 329.807 120.452ZM329.807 122.585C329.252 122.585 328.756 122.702 328.318 122.937C327.889 123.171 327.553 123.507 327.31 123.944C327.068 124.374 326.947 124.874 326.947 125.444C326.947 126.015 327.068 126.515 327.31 126.944C327.553 127.366 327.889 127.694 328.318 127.929C328.756 128.155 329.252 128.265 329.807 128.257C330.346 128.265 330.826 128.155 331.248 127.929C331.678 127.694 332.014 127.366 332.256 126.944C332.506 126.515 332.635 126.015 332.643 125.444C332.635 124.874 332.506 124.374 332.256 123.944C332.014 123.515 331.678 123.183 331.248 122.948C330.826 122.706 330.346 122.585 329.807 122.585ZM362.163 134.913H359.679V113.726H362.163V134.913ZM357.663 133.905H355.202V124.155H351.417C350.144 126.679 348.069 128.772 345.194 130.437L343.718 128.585C345.874 127.319 347.495 125.854 348.581 124.19C349.667 122.519 350.311 120.593 350.515 118.413H344.796V116.304H353.093C353.093 118.437 352.819 120.358 352.272 122.069H355.202V114.241H357.663V133.905Z" fill="black"/>
</svg>
