<svg width="422" height="209" viewBox="0 0 422 209" fill="none" xmlns="http://www.w3.org/2000/svg">
<circle cx="211" cy="48" r="45.5" stroke="black" stroke-width="5"/>
<path d="M200.213 27.6593C190.444 31.7981 183.571 41.4566 183.571 52.6744C183.571 67.6465 195.814 79.8418 210.844 79.8418C225.874 79.8418 238.117 67.6466 238.117 52.6744C238.117 41.4567 231.244 31.7981 221.476 27.6593L217.236 31.8827C226.183 34.5941 232.662 42.8561 232.662 52.6746C232.662 64.71 222.926 74.4085 210.844 74.4085C198.762 74.4085 189.026 64.7099 189.026 52.6746C189.026 42.8561 195.506 34.5941 204.452 31.8828L200.213 27.6593Z" fill="black"/>
<path fill-rule="evenodd" clip-rule="evenodd" d="M198.635 20.7538L201.816 16H206.084L202.902 20.7538H198.635ZM205.908 20.7538L209.089 16H212.599L215.78 20.7538H205.908ZM218.786 20.7538L215.605 16H219.872L223.053 20.7538H218.786ZM206.28 30.1804L199.318 23.2449H202.799L206.28 30.1804ZM210.844 33.7031L205.595 23.2449L216.094 23.2447L210.844 33.7031ZM215.408 30.1804L218.89 23.2449H222.371L215.408 30.1804Z" fill="black"/>
<path d="M152.863 160.336C152.159 160.336 151.487 160.224 150.847 160L141.679 125.872C142.127 125.552 142.783 125.296 143.647 125.104C144.543 124.88 145.311 124.816 145.951 124.912L153.391 152.608L161.503 131.584C162.143 131.36 162.831 131.248 163.567 131.248C164.207 131.248 164.863 131.36 165.535 131.584L173.695 152.704L181.135 124.912C181.967 124.816 182.767 124.88 183.535 125.104C184.303 125.296 184.895 125.552 185.311 125.872L176.239 160C175.535 160.224 174.847 160.336 174.175 160.336C173.471 160.336 172.799 160.224 172.159 160L163.519 137.68L154.927 160C154.223 160.224 153.535 160.336 152.863 160.336ZM183.129 156.64C183.929 156.384 184.921 156.016 186.105 155.536C187.289 155.024 188.409 154.496 189.465 153.952C188.409 151.904 187.881 149.536 187.881 146.848C187.881 144.864 188.249 143.12 188.985 141.616C189.721 140.08 190.745 138.88 192.057 138.016C193.369 137.12 194.857 136.672 196.521 136.672C197.929 136.672 199.177 137.008 200.265 137.68C201.353 138.32 202.201 139.216 202.809 140.368C203.417 141.52 203.721 142.848 203.721 144.352C203.593 148.192 200.873 151.824 195.561 155.248C196.617 156.144 198.089 156.592 199.977 156.592C200.425 156.592 200.777 156.784 201.033 157.168C201.289 157.552 201.417 158.064 201.417 158.704C201.417 159.312 201.273 159.792 200.985 160.144C200.697 160.496 200.281 160.672 199.737 160.672C198.073 160.672 196.521 160.384 195.081 159.808C193.673 159.2 192.537 158.368 191.673 157.312C190.489 157.92 189.225 158.512 187.881 159.088C186.569 159.632 185.449 160.048 184.521 160.336C184.009 159.888 183.641 159.36 183.417 158.752C183.161 158.144 183.065 157.44 183.129 156.64ZM192.057 146.464C192.057 148.736 192.425 150.624 193.161 152.128C195.369 150.656 196.969 149.344 197.961 148.192C198.953 147.008 199.481 145.728 199.545 144.352C199.545 143.2 199.257 142.304 198.681 141.664C198.137 140.992 197.369 140.656 196.377 140.656C195.129 140.656 194.089 141.216 193.257 142.336C192.457 143.456 192.057 144.832 192.057 146.464ZM198.844 160.672C198.396 160.672 198.044 160.48 197.788 160.096C197.5 159.712 197.356 159.216 197.356 158.608C197.356 157.968 197.516 157.472 197.836 157.12C198.156 156.768 198.572 156.592 199.084 156.592C201.004 156.592 202.764 156.08 204.364 155.056C205.996 154 207.34 152.576 208.396 150.784C208.332 150.304 208.3 149.792 208.3 149.248C208.3 146.816 208.78 144.656 209.74 142.768C210.7 140.88 211.996 139.392 213.628 138.304C215.292 137.216 217.18 136.672 219.292 136.672C220.412 136.672 221.516 136.896 222.604 137.344C223.692 137.76 224.604 138.336 225.34 139.072V119.68C225.948 119.456 226.684 119.344 227.548 119.344C228.284 119.344 229.004 119.456 229.708 119.68V151.6C229.708 153.36 229.932 154.624 230.38 155.392C230.86 156.16 231.612 156.544 232.636 156.544C233.084 156.544 233.42 156.736 233.644 157.12C233.9 157.504 234.028 158.016 234.028 158.656C234.028 159.168 233.884 159.632 233.596 160.048C233.34 160.464 232.908 160.672 232.3 160.672C229.26 160.672 227.212 159.424 226.156 156.928C225.228 158.112 224.108 159.04 222.796 159.712C221.484 160.352 220.028 160.672 218.428 160.672C216.508 160.672 214.812 160.24 213.34 159.376C211.9 158.512 210.748 157.312 209.884 155.776C208.54 157.344 206.924 158.56 205.036 159.424C203.148 160.256 201.084 160.672 198.844 160.672ZM212.764 149.248C212.764 151.52 213.276 153.312 214.3 154.624C215.356 155.904 216.796 156.544 218.62 156.544C220.636 156.544 222.252 155.856 223.468 154.48C224.716 153.104 225.34 151.296 225.34 149.056V143.68C224.7 142.816 223.884 142.128 222.892 141.616C221.9 141.072 220.876 140.8 219.82 140.8C218.444 140.8 217.228 141.168 216.172 141.904C215.116 142.64 214.284 143.648 213.676 144.928C213.068 146.176 212.764 147.616 212.764 149.248ZM231.706 156.544C232.378 156.544 233.098 156.336 233.866 155.92C234.634 155.504 235.354 154.864 236.026 154C236.826 152.912 237.402 151.664 237.754 150.256C238.138 148.848 238.378 147.424 238.474 145.984V137.344C238.762 137.248 239.098 137.168 239.482 137.104C239.866 137.04 240.266 137.008 240.682 137.008C241.418 137.008 242.138 137.12 242.842 137.344V151.168C242.842 152.864 243.098 154.192 243.61 155.152C244.154 156.08 245.05 156.544 246.298 156.544C246.842 156.544 247.21 156.768 247.402 157.216C247.594 157.664 247.69 158.144 247.69 158.656C247.69 159.168 247.546 159.632 247.258 160.048C247.002 160.464 246.57 160.672 245.962 160.672C242.634 160.672 240.474 159.104 239.482 155.968C239.034 156.704 238.554 157.328 238.042 157.84C237.178 158.704 236.17 159.392 235.018 159.904C233.898 160.416 232.682 160.672 231.37 160.672C230.922 160.672 230.586 160.448 230.362 160C230.106 159.584 229.978 159.12 229.978 158.608C229.978 158.064 230.122 157.584 230.41 157.168C230.666 156.752 231.098 156.544 231.706 156.544ZM240.73 130.432C239.834 130.432 239.066 130.112 238.426 129.472C237.786 128.832 237.466 128.064 237.466 127.168C237.466 126.208 237.77 125.424 238.378 124.816C239.018 124.208 239.802 123.904 240.73 123.904C241.69 123.904 242.474 124.208 243.082 124.816C243.69 125.424 243.994 126.208 243.994 127.168C243.994 128.096 243.674 128.88 243.034 129.52C242.426 130.128 241.658 130.432 240.73 130.432ZM245.372 156.544C246.172 156.544 247.084 156.304 248.108 155.824C249.164 155.344 250.188 154.528 251.18 153.376C252.172 152.224 252.988 150.672 253.628 148.72C254.268 146.736 254.588 144.256 254.588 141.28V136.672H251.036C250.812 136.16 250.7 135.52 250.7 134.752C250.7 133.984 250.812 133.344 251.036 132.832H254.588V124.336C255.196 124.112 255.932 124 256.796 124C257.564 124 258.3 124.112 259.004 124.336V132.832H266.156C266.412 133.344 266.54 133.984 266.54 134.752C266.54 135.52 266.412 136.16 266.156 136.672H259.004V151.744C259.004 152.512 259.068 153.264 259.196 154C259.356 154.736 259.644 155.36 260.06 155.872C260.476 156.352 261.116 156.592 261.98 156.592C262.844 156.592 263.612 156.368 264.284 155.92C264.988 155.44 265.58 154.976 266.06 154.528C266.572 154.912 267.036 155.392 267.452 155.968C267.868 156.544 268.124 157.12 268.22 157.696C267.932 158.048 267.484 158.464 266.876 158.944C266.268 159.392 265.532 159.792 264.668 160.144C263.804 160.496 262.828 160.672 261.74 160.672C259.82 160.672 258.332 160.144 257.276 159.088C256.252 158.032 255.58 156.656 255.26 154.96C253.916 156.912 252.332 158.352 250.508 159.28C248.716 160.208 246.892 160.672 245.036 160.672C244.62 160.672 244.284 160.464 244.028 160.048C243.772 159.664 243.644 159.184 243.644 158.608C243.644 158 243.788 157.504 244.076 157.12C244.364 156.736 244.796 156.544 245.372 156.544ZM31.6992 174.531V188.844H28.2305V186.375H21.418V183.719H28.2305V180.938H21.793C20.0117 185.25 15.8867 188.062 9.63675 189.469L8.418 186.625C15.0586 185.25 18.3711 182.328 18.8555 178.562H9.9805V175.75H22.7305C22.7305 176.641 22.6524 177.484 22.543 178.281H28.2305V174.531H31.6992ZM31.6992 189.938V197.375H16.6055V199.719H32.4492V202.5H13.1367V194.781H28.2305V192.688H13.1055V189.938H31.6992ZM60.8412 190.938V193.688H35.0912V190.938H46.2162V189.125C41.31 188.875 38.56 187.375 38.56 184.844C38.56 182.031 41.9662 180.562 47.935 180.562C53.9037 180.562 57.3412 182.031 57.3412 184.844C57.3412 187.375 54.5756 188.859 49.685 189.125V190.938H60.8412ZM57.935 199.469V202.219H38.2787V195.156H41.7475V199.469H57.935ZM59.435 176.969V179.594H36.3725V176.969H46.2162V174.344H49.685V176.969H59.435ZM47.935 183C43.9975 183 42.0912 183.594 42.1225 184.844C42.0912 186.094 43.9975 186.688 47.935 186.688C51.8412 186.688 53.7787 186.094 53.7787 184.844C53.7787 183.594 51.8412 183 47.935 183ZM74.9832 174.969C81.4207 174.969 85.1395 176.688 85.1707 179.812C85.1395 182.969 81.4207 184.656 74.9832 184.688C68.5457 184.656 64.7957 182.969 64.7957 179.812C64.7957 176.688 68.5457 174.969 74.9832 174.969ZM74.9832 177.531C70.6707 177.531 68.4207 178.344 68.452 179.812C68.4207 181.375 70.6707 182.094 74.9832 182.094C79.3582 182.094 81.577 181.375 81.577 179.812C81.577 178.344 79.3582 177.531 74.9832 177.531ZM87.8895 186.188V188.969H62.1395V186.188H87.8895ZM84.6707 190.875V197.781H68.6082V199.875H85.452V202.531H65.202V195.312H81.2645V193.438H65.1707V190.875H84.6707ZM118.455 174.531V182.656H122.392V185.562H118.455V194.906H114.924V174.531H118.455ZM110.767 176.688C110.767 184.188 105.892 189.531 97.5173 191.969L96.0798 189.219C102.533 187.359 106.377 183.844 106.986 179.531H97.2673V176.688H110.767ZM119.517 199.406V202.219H100.299V192.812H103.83V199.406H119.517ZM146.878 174.531V195.406H143.409V188.031H139.409V185.156H143.409V182.469H139.409V179.656H143.409V174.531H146.878ZM139.003 176.656V179.438H136.503V188.438C137.565 188.375 138.597 188.297 139.597 188.188L139.753 190.719C134.409 191.594 128.128 191.688 123.628 191.688L123.253 188.812L126.44 188.781V179.438H123.972V176.656H139.003ZM147.597 199.406V202.219H128.315V193.781H131.815V199.406H147.597ZM129.815 188.75L133.159 188.625V179.438H129.815V188.75ZM172.395 174.531V185.781H176.739V188.656H172.395V202.781H168.958V174.531H172.395ZM166.77 178.875V181.656H150.114V178.875H156.801V174.938H160.27V178.875H166.77ZM158.551 183.5C162.614 183.5 165.645 186.25 165.645 190.156C165.645 194.062 162.614 196.781 158.551 196.781C154.426 196.781 151.395 194.062 151.426 190.156C151.395 186.25 154.426 183.5 158.551 183.5ZM158.551 186.344C156.333 186.344 154.739 187.844 154.739 190.156C154.739 192.469 156.333 193.938 158.551 193.906C160.708 193.938 162.301 192.469 162.333 190.156C162.301 187.844 160.708 186.344 158.551 186.344ZM201.693 174.531V202.781H198.381V174.531H201.693ZM195.693 175.219V201.438H192.412V188.438H187.381C185.725 191.688 183.068 194.5 179.068 196.812L177.1 194.344C182.959 190.891 185.631 186.469 186.162 180.781H178.537V177.969H189.6C189.6 180.703 189.271 183.266 188.506 185.656H192.412V175.219H195.693ZM209.867 197.781L207.242 206.531H204.273L205.898 197.781H209.867ZM244.713 196.594V199.438H218.9V196.594H230.057V190.75H233.494V196.594H244.713ZM242.4 178.625V181.438H233.588C233.822 184.953 237.494 188.188 243.588 189L242.307 191.719C237.416 191.031 233.65 188.859 231.775 185.75C229.9 188.859 226.166 191.031 221.275 191.719L219.963 189C226.088 188.188 229.744 184.953 230.025 181.438H221.182V178.625H230.057V174.969H233.494V178.625H242.4ZM270.261 174.531V202.781H266.949V188.375H263.761V201.344H260.574V175.062H263.761V185.594H266.949V174.531H270.261ZM257.386 177.875V180.688H250.324V193.25C253.402 193.219 255.933 193.062 258.792 192.531L259.042 195.375C255.636 196.062 252.667 196.156 248.73 196.188H246.824V177.875H257.386ZM298.778 187.344V189.969H272.966V187.344H298.778ZM295.653 191.656V198.094H279.466V200.062H296.497V202.469H275.997V195.844H292.216V194.094H275.966V191.656H295.653ZM295.591 175.156V181.531H279.685V183.375H296.091V185.75H276.247V179.281H292.122V177.562H276.153V175.156H295.591ZM332.781 189.312V192.031H306.969V189.312H332.781ZM329.531 194.188V202.781H326.031V196.969H309.875V194.188H329.531ZM329.906 184.562V187.219H310.281V175.219H329.687V177.938H313.75V179.875H329V182.469H313.75V184.562H329.906ZM357.736 174.531V189.125H354.267V186.062H348.579V188.219H335.361V175.781H338.829V179.344H345.142V175.781H348.579V178.281H354.267V174.531H357.736ZM357.736 190.281V197.531H342.611V199.688H358.642V202.438H339.142V194.969H354.267V193H339.111V190.281H357.736ZM338.829 185.469H345.142V182H338.829V185.469ZM348.579 183.406H354.267V180.906H348.579V183.406ZM383.253 174.531V185.781H387.596V188.656H383.253V202.781H379.815V174.531H383.253ZM377.628 178.875V181.656H360.971V178.875H367.659V174.938H371.128V178.875H377.628ZM369.409 183.5C373.471 183.5 376.503 186.25 376.503 190.156C376.503 194.062 373.471 196.781 369.409 196.781C365.284 196.781 362.253 194.062 362.284 190.156C362.253 186.25 365.284 183.5 369.409 183.5ZM369.409 186.344C367.19 186.344 365.596 187.844 365.596 190.156C365.596 192.469 367.19 193.938 369.409 193.906C371.565 193.938 373.159 192.469 373.19 190.156C373.159 187.844 371.565 186.344 369.409 186.344ZM412.551 174.531V202.781H409.238V174.531H412.551ZM406.551 175.219V201.438H403.27V188.438H398.238C396.582 191.688 393.926 194.5 389.926 196.812L387.957 194.344C393.816 190.891 396.488 186.469 397.02 180.781H389.395V177.969H400.457C400.457 180.703 400.129 183.266 399.363 185.656H403.27V175.219H406.551Z" fill="black"/>
</svg>
