<svg width="69" height="69" viewBox="0 0 69 69" fill="none" xmlns="http://www.w3.org/2000/svg">
<rect width="69" height="69" rx="10" fill="#ACB66D"/>
<path d="M17.25 57.5C15.6688 57.5 14.3151 56.937 13.1891 55.8109C12.063 54.6849 11.5 53.3312 11.5 51.75C11.5 50.1687 12.063 48.8151 13.1891 47.6891C14.3151 46.563 15.6688 46 17.25 46C18.8313 46 20.1849 46.563 21.3109 47.6891C22.437 48.8151 23 50.1687 23 51.75C23 53.3312 22.437 54.6849 21.3109 55.8109C20.1849 56.937 18.8313 57.5 17.25 57.5ZM17.25 40.25C15.6688 40.25 14.3151 39.687 13.1891 38.5609C12.063 37.4349 11.5 36.0812 11.5 34.5C11.5 32.9187 12.063 31.5651 13.1891 30.4391C14.3151 29.313 15.6688 28.75 17.25 28.75C18.8313 28.75 20.1849 29.313 21.3109 30.4391C22.437 31.5651 23 32.9187 23 34.5C23 36.0812 22.437 37.4349 21.3109 38.5609C20.1849 39.687 18.8313 40.25 17.25 40.25ZM17.25 23C15.6688 23 14.3151 22.437 13.1891 21.3109C12.063 20.1849 11.5 18.8312 11.5 17.25C11.5 15.6687 12.063 14.3151 13.1891 13.1891C14.3151 12.063 15.6688 11.5 17.25 11.5C18.8313 11.5 20.1849 12.063 21.3109 13.1891C22.437 14.3151 23 15.6687 23 17.25C23 18.8312 22.437 20.1849 21.3109 21.3109C20.1849 22.437 18.8313 23 17.25 23ZM34.5 23C32.9188 23 31.5651 22.437 30.4391 21.3109C29.313 20.1849 28.75 18.8312 28.75 17.25C28.75 15.6687 29.313 14.3151 30.4391 13.1891C31.5651 12.063 32.9188 11.5 34.5 11.5C36.0813 11.5 37.4349 12.063 38.5609 13.1891C39.687 14.3151 40.25 15.6687 40.25 17.25C40.25 18.8312 39.687 20.1849 38.5609 21.3109C37.4349 22.437 36.0813 23 34.5 23ZM51.75 23C50.1688 23 48.8151 22.437 47.6891 21.3109C46.563 20.1849 46 18.8312 46 17.25C46 15.6687 46.563 14.3151 47.6891 13.1891C48.8151 12.063 50.1688 11.5 51.75 11.5C53.3313 11.5 54.6849 12.063 55.8109 13.1891C56.937 14.3151 57.5 15.6687 57.5 17.25C57.5 18.8312 56.937 20.1849 55.8109 21.3109C54.6849 22.437 53.3313 23 51.75 23ZM34.5 40.25C32.9188 40.25 31.5651 39.687 30.4391 38.5609C29.313 37.4349 28.75 36.0812 28.75 34.5C28.75 32.9187 29.313 31.5651 30.4391 30.4391C31.5651 29.313 32.9188 28.75 34.5 28.75C36.0813 28.75 37.4349 29.313 38.5609 30.4391C39.687 31.5651 40.25 32.9187 40.25 34.5C40.25 36.0812 39.687 37.4349 38.5609 38.5609C37.4349 39.687 36.0813 40.25 34.5 40.25ZM37.375 57.5V48.6594L53.2594 32.8469C53.6906 32.4156 54.1698 32.1042 54.6969 31.9125C55.224 31.7208 55.751 31.625 56.2781 31.625C56.8531 31.625 57.4042 31.7328 57.9313 31.9484C58.4583 32.1641 58.9375 32.4875 59.3688 32.9187L62.0281 35.5781C62.4115 36.0094 62.7109 36.4885 62.9266 37.0156C63.1422 37.5427 63.25 38.0698 63.25 38.5969C63.25 39.124 63.1542 39.663 62.9625 40.2141C62.7708 40.7651 62.4594 41.2562 62.0281 41.6875L46.2156 57.5H37.375ZM41.6875 53.1875H44.4188L53.1156 44.4187L51.8219 43.0531L50.4563 41.7594L41.6875 50.4562V53.1875ZM51.8219 43.0531L50.4563 41.7594L53.1156 44.4187L51.8219 43.0531Z" fill="white"/>
</svg>
