<svg width="69" height="69" viewBox="0 0 69 69" fill="none" xmlns="http://www.w3.org/2000/svg">
<rect width="69" height="69" rx="10" fill="#ACB66D"/>
<path d="M17.25 40.25V46H11.5C9.91875 46 8.5651 45.437 7.43906 44.3109C6.31302 43.1849 5.75 41.8312 5.75 40.25V11.5C5.75 9.91875 6.31302 8.5651 7.43906 7.43906C8.5651 6.31302 9.91875 5.75 11.5 5.75H40.25C41.8312 5.75 43.1849 6.31302 44.3109 7.43906C45.437 8.5651 46 9.91875 46 11.5V17.25H40.25V11.5H11.5V40.25H17.25ZM28.75 63.25C27.1687 63.25 25.8151 62.687 24.6891 61.5609C23.563 60.4349 23 59.0812 23 57.5V28.75C23 27.1687 23.563 25.8151 24.6891 24.6891C25.8151 23.563 27.1687 23 28.75 23H57.5C59.0812 23 60.4349 23.563 61.5609 24.6891C62.687 25.8151 63.25 27.1687 63.25 28.75V57.5C63.25 59.0812 62.687 60.4349 61.5609 61.5609C60.4349 62.687 59.0812 63.25 57.5 63.25H28.75ZM28.75 57.5H57.5V28.75H28.75V57.5Z" fill="white"/>
</svg>
