<svg viewBox="0 0 69 69" fill="none" xmlns="http://www.w3.org/2000/svg">
<rect width="69" height="69" rx="10" fill="#ACB66D"/>
<path d="M56.35 60.375L38.2375 42.2625C36.8 43.4125 35.1469 44.3229 33.2781 44.9937C31.4094 45.6646 29.4208 46 27.3125 46C22.0896 46 17.6693 44.1911 14.0516 40.5734C10.4339 36.9557 8.625 32.5354 8.625 27.3125C8.625 22.0896 10.4339 17.6693 14.0516 14.0516C17.6693 10.4339 22.0896 8.625 27.3125 8.625C32.5354 8.625 36.9557 10.4339 40.5734 14.0516C44.1911 17.6693 46 22.0896 46 27.3125C46 29.4208 45.6646 31.4094 44.9937 33.2781C44.3229 35.1469 43.4125 36.8 42.2625 38.2375L60.375 56.35L56.35 60.375ZM27.3125 40.25C30.9062 40.25 33.9609 38.9922 36.4766 36.4766C38.9922 33.9609 40.25 30.9062 40.25 27.3125C40.25 23.7187 38.9922 20.6641 36.4766 18.1484C33.9609 15.6328 30.9062 14.375 27.3125 14.375C23.7187 14.375 20.6641 15.6328 18.1484 18.1484C15.6328 20.6641 14.375 23.7187 14.375 27.3125C14.375 30.9062 15.6328 33.9609 18.1484 36.4766C20.6641 38.9922 23.7187 40.25 27.3125 40.25ZM21.5625 35.9375L23.7187 28.8937L17.9687 24.2937H25.0125L27.3125 17.25L29.6125 24.2937H36.6562L30.9062 28.8937L33.0625 35.9375L27.3125 31.4812L21.5625 35.9375Z" fill="white"/>
</svg>
