<svg viewBox="0 0 26 26" fill="none" xmlns="http://www.w3.org/2000/svg">
<path d="M13 0C5.82034 0 0 5.82034 0 13C0 20.1801 5.82034 26 13 26C20.1801 26 26 20.1801 26 13C26 5.82034 20.1801 0 13 0ZM13 24.4006C6.72791 24.4006 1.625 19.2721 1.625 12.9999C1.625 6.72786 6.72791 1.62495 13 1.62495C19.2721 1.62495 24.375 6.72788 24.375 12.9999C24.375 19.272 19.2721 24.4006 13 24.4006ZM17.5959 8.40409C17.2786 8.08681 16.7643 8.08681 16.447 8.40409L13 11.8511L9.55297 8.40409C9.23569 8.08681 8.72138 8.08681 8.40369 8.40409C8.08641 8.72138 8.08641 9.23569 8.40369 9.55297L11.8507 13L8.40369 16.447C8.08641 16.7639 8.08641 17.2791 8.40369 17.5959C8.72097 17.9132 9.23528 17.9132 9.55297 17.5959L13 14.1489L16.447 17.5959C16.7643 17.9132 17.2786 17.9132 17.5959 17.5959C17.9132 17.2791 17.9132 16.7639 17.5959 16.447L14.1489 13L17.5959 9.55297C17.9136 9.23528 17.9136 8.72097 17.5959 8.40409Z" fill="#B6B6B6"/>
</svg>
