<svg viewBox="0 0 138 42" fill="none" xmlns="http://www.w3.org/2000/svg">
<circle cx="21" cy="21" r="20" stroke="black" stroke-width="2"/>
<path d="M16.2805 12.101C12.0069 13.9117 9 18.1372 9 23.0451C9 29.5953 14.3562 34.9308 20.9319 34.9308C27.5075 34.9308 32.8637 29.5954 32.8637 23.0451C32.8637 18.1373 29.8568 13.9117 25.5832 12.101L23.7283 13.9487C27.6425 15.1349 30.4773 18.7496 30.4773 23.0451C30.4773 28.3106 26.2177 32.5537 20.9319 32.5537C15.6459 32.5537 11.3864 28.3106 11.3864 23.0451C11.3864 18.7496 14.2213 15.1349 18.1354 13.9487L16.2805 12.101Z" fill="black"/>
<path fill-rule="evenodd" clip-rule="evenodd" d="M15.5904 9.07979L16.9823 7H18.8491L17.4572 9.07979H15.5904ZM18.7722 9.07979L20.164 7H21.6996L23.0914 9.07979H18.7722ZM24.4066 9.07979L23.0147 7H24.8815L26.2734 9.07979H24.4066ZM18.9351 13.2039L15.889 10.1696H17.412L18.9351 13.2039ZM20.9319 14.7451L18.6352 10.1696L23.2285 10.1696L20.9319 14.7451ZM22.9287 13.2039L24.4517 10.1696H25.9747L22.9287 13.2039Z" fill="black"/>
<path d="M60.298 33.724C59.8287 33.724 59.3807 33.6493 58.954 33.5L52.842 10.748C53.1407 10.5347 53.578 10.364 54.154 10.236C54.7513 10.0867 55.2633 10.044 55.69 10.108L60.65 28.572L66.058 14.556C66.4847 14.4067 66.9433 14.332 67.434 14.332C67.8607 14.332 68.298 14.4067 68.746 14.556L74.186 28.636L79.146 10.108C79.7007 10.044 80.234 10.0867 80.746 10.236C81.258 10.364 81.6527 10.5347 81.93 10.748L75.882 33.5C75.4127 33.6493 74.954 33.724 74.506 33.724C74.0367 33.724 73.5887 33.6493 73.162 33.5L67.402 18.62L61.674 33.5C61.2047 33.6493 60.746 33.724 60.298 33.724ZM80.4755 31.26C81.0088 31.0893 81.6702 30.844 82.4595 30.524C83.2488 30.1827 83.9955 29.8307 84.6995 29.468C83.9955 28.1027 83.6435 26.524 83.6435 24.732C83.6435 23.4093 83.8888 22.2467 84.3795 21.244C84.8702 20.22 85.5528 19.42 86.4275 18.844C87.3022 18.2467 88.2942 17.948 89.4035 17.948C90.3422 17.948 91.1742 18.172 91.8995 18.62C92.6248 19.0467 93.1902 19.644 93.5955 20.412C94.0008 21.18 94.2035 22.0653 94.2035 23.068C94.1182 25.628 92.3048 28.0493 88.7635 30.332C89.4675 30.9293 90.4488 31.228 91.7075 31.228C92.0062 31.228 92.2408 31.356 92.4115 31.612C92.5822 31.868 92.6675 32.2093 92.6675 32.636C92.6675 33.0413 92.5715 33.3613 92.3795 33.596C92.1875 33.8307 91.9102 33.948 91.5475 33.948C90.4382 33.948 89.4035 33.756 88.4435 33.372C87.5048 32.9667 86.7475 32.412 86.1715 31.708C85.3822 32.1133 84.5395 32.508 83.6435 32.892C82.7688 33.2547 82.0222 33.532 81.4035 33.724C81.0622 33.4253 80.8168 33.0733 80.6675 32.668C80.4968 32.2627 80.4328 31.7933 80.4755 31.26ZM86.4275 24.476C86.4275 25.9907 86.6728 27.2493 87.1635 28.252C88.6355 27.2707 89.7022 26.396 90.3635 25.628C91.0248 24.8387 91.3768 23.9853 91.4195 23.068C91.4195 22.3 91.2275 21.7027 90.8435 21.276C90.4808 20.828 89.9688 20.604 89.3075 20.604C88.4755 20.604 87.7822 20.9773 87.2275 21.724C86.6942 22.4707 86.4275 23.388 86.4275 24.476ZM90.9517 33.948C90.6531 33.948 90.4184 33.82 90.2477 33.564C90.0557 33.308 89.9597 32.9773 89.9597 32.572C89.9597 32.1453 90.0664 31.8147 90.2797 31.58C90.4931 31.3453 90.7704 31.228 91.1117 31.228C92.3917 31.228 93.5651 30.8867 94.6318 30.204C95.7198 29.5 96.6158 28.5507 97.3198 27.356C97.2771 27.036 97.2558 26.6947 97.2558 26.332C97.2558 24.7107 97.5758 23.2707 98.2158 22.012C98.8558 20.7533 99.7198 19.7613 100.808 19.036C101.917 18.3107 103.176 17.948 104.584 17.948C105.33 17.948 106.066 18.0973 106.792 18.396C107.517 18.6733 108.125 19.0573 108.616 19.548V6.62C109.021 6.47066 109.512 6.396 110.088 6.396C110.578 6.396 111.058 6.47066 111.528 6.62V27.9C111.528 29.0733 111.677 29.916 111.976 30.428C112.296 30.94 112.797 31.196 113.48 31.196C113.778 31.196 114.002 31.324 114.152 31.58C114.322 31.836 114.408 32.1773 114.408 32.604C114.408 32.9453 114.312 33.2547 114.12 33.532C113.949 33.8093 113.661 33.948 113.256 33.948C111.229 33.948 109.864 33.116 109.16 31.452C108.541 32.2413 107.794 32.86 106.92 33.308C106.045 33.7347 105.074 33.948 104.008 33.948C102.728 33.948 101.597 33.66 100.616 33.084C99.6558 32.508 98.8878 31.708 98.3118 30.684C97.4158 31.7293 96.3384 32.54 95.0798 33.116C93.8211 33.6707 92.4451 33.948 90.9517 33.948ZM100.232 26.332C100.232 27.8467 100.573 29.0413 101.256 29.916C101.96 30.7693 102.92 31.196 104.136 31.196C105.48 31.196 106.557 30.7373 107.368 29.82C108.2 28.9027 108.616 27.6973 108.616 26.204V22.62C108.189 22.044 107.645 21.5853 106.984 21.244C106.322 20.8813 105.64 20.7 104.936 20.7C104.018 20.7 103.208 20.9453 102.504 21.436C101.8 21.9267 101.245 22.5987 100.84 23.452C100.434 24.284 100.232 25.244 100.232 26.332ZM112.86 31.196C113.308 31.196 113.788 31.0573 114.3 30.78C114.812 30.5027 115.292 30.076 115.74 29.5C116.273 28.7747 116.657 27.9427 116.892 27.004C117.148 26.0653 117.308 25.116 117.372 24.156V18.396C117.564 18.332 117.788 18.2787 118.044 18.236C118.3 18.1933 118.567 18.172 118.844 18.172C119.335 18.172 119.815 18.2467 120.284 18.396V27.612C120.284 28.7427 120.455 29.628 120.796 30.268C121.159 30.8867 121.756 31.196 122.588 31.196C122.951 31.196 123.196 31.3453 123.324 31.644C123.452 31.9427 123.516 32.2627 123.516 32.604C123.516 32.9453 123.42 33.2547 123.228 33.532C123.057 33.8093 122.769 33.948 122.364 33.948C120.145 33.948 118.705 32.9027 118.044 30.812C117.745 31.3027 117.425 31.7187 117.084 32.06C116.508 32.636 115.836 33.0947 115.068 33.436C114.321 33.7773 113.511 33.948 112.636 33.948C112.337 33.948 112.113 33.7987 111.964 33.5C111.793 33.2227 111.708 32.9133 111.708 32.572C111.708 32.2093 111.804 31.8893 111.996 31.612C112.167 31.3347 112.455 31.196 112.86 31.196ZM118.876 13.788C118.279 13.788 117.767 13.5747 117.34 13.148C116.913 12.7213 116.7 12.2093 116.7 11.612C116.7 10.972 116.903 10.4493 117.308 10.044C117.735 9.63867 118.257 9.436 118.876 9.436C119.516 9.436 120.039 9.63867 120.444 10.044C120.849 10.4493 121.052 10.972 121.052 11.612C121.052 12.2307 120.839 12.7533 120.412 13.18C120.007 13.5853 119.495 13.788 118.876 13.788ZM121.971 31.196C122.504 31.196 123.112 31.036 123.795 30.716C124.499 30.396 125.181 29.852 125.843 29.084C126.504 28.316 127.048 27.2813 127.475 25.98C127.901 24.6573 128.115 23.004 128.115 21.02V17.948H125.747C125.597 17.6067 125.523 17.18 125.523 16.668C125.523 16.156 125.597 15.7293 125.747 15.388H128.115V9.724C128.52 9.57467 129.011 9.5 129.587 9.5C130.099 9.5 130.589 9.57467 131.059 9.724V15.388H135.827C135.997 15.7293 136.083 16.156 136.083 16.668C136.083 17.18 135.997 17.6067 135.827 17.948H131.059V27.996C131.059 28.508 131.101 29.0093 131.187 29.5C131.293 29.9907 131.485 30.4067 131.763 30.748C132.04 31.068 132.467 31.228 133.043 31.228C133.619 31.228 134.131 31.0787 134.579 30.78C135.048 30.46 135.443 30.1507 135.763 29.852C136.104 30.108 136.413 30.428 136.691 30.812C136.968 31.196 137.139 31.58 137.203 31.964C137.011 32.1987 136.712 32.476 136.307 32.796C135.901 33.0947 135.411 33.3613 134.835 33.596C134.259 33.8307 133.608 33.948 132.883 33.948C131.603 33.948 130.611 33.596 129.907 32.892C129.224 32.188 128.776 31.2707 128.563 30.14C127.667 31.4413 126.611 32.4013 125.395 33.02C124.2 33.6387 122.984 33.948 121.747 33.948C121.469 33.948 121.245 33.8093 121.075 33.532C120.904 33.276 120.819 32.956 120.819 32.572C120.819 32.1667 120.915 31.836 121.107 31.58C121.299 31.324 121.587 31.196 121.971 31.196Z" fill="black"/>
</svg>
