<svg width="29" height="31" viewBox="0 0 29 31" fill="none" xmlns="http://www.w3.org/2000/svg">
<g id="Interface essential/Calendar">
<g id="Icon">
<path d="M19.9373 10.54H9.06234C8.56183 10.54 8.15609 10.9737 8.15609 11.5087C8.15609 12.0438 8.56183 12.4775 9.06234 12.4775H19.9373C20.4378 12.4775 20.8436 12.0438 20.8436 11.5087C20.8436 10.9737 20.4378 10.54 19.9373 10.54Z" fill="#8E9198"/>
<path fill-rule="evenodd" clip-rule="evenodd" d="M20.4086 4.61125H20.5415C23.8782 4.61125 26.5832 7.50274 26.5832 11.0696V22.6946C26.5832 26.2614 23.8782 29.1529 20.5415 29.1529H8.45817C6.85582 29.1529 5.3191 28.4725 4.18607 27.2613C3.05303 26.0501 2.4165 24.4074 2.4165 22.6946V11.0696C2.4165 7.50274 5.12145 4.61125 8.45817 4.61125H8.56692V2.26041C8.56692 1.72539 8.97266 1.29166 9.47317 1.29166C9.97368 1.29166 10.3794 1.72539 10.3794 2.26041V4.61125H18.5961V2.26041C18.5961 1.72539 19.0018 1.29166 19.5023 1.29166C20.0028 1.29166 20.4086 1.72539 20.4086 2.26041V4.61125ZM20.5415 27.2154C22.8772 27.2154 24.7707 25.1914 24.7707 22.6946V11.0696C24.7707 8.57279 22.8772 6.54875 20.5415 6.54875H8.45817C6.12247 6.54875 4.229 8.57279 4.229 11.0696V22.6946C4.229 25.1914 6.12247 27.2154 8.45817 27.2154H20.5415Z" fill="#8E9198"/>
</g>
</g>
</svg>
