<svg 
    width="42"
    height="42" 
    viewBox="0 0 42 42" 
    fill="none" 
    xmlns="http://www.w3.org/2000/svg"
>
    <g id="Group 1597880426">
    <circle id="Ellipse 2908" cx="21" cy="21" r="20" stroke="black" stroke-width="2"/>
    <g id="Group 1597880425">
    <path id="Vector" d="M16.2805 12.101C12.0069 13.9117 9 18.1372 9 23.0451C9 29.5953 14.3562 34.9308 20.9319 34.9308C27.5075 34.9308 32.8637 29.5954 32.8637 23.0451C32.8637 18.1373 29.8568 13.9117 25.5832 12.101L23.7283 13.9487C27.6425 15.1349 30.4773 18.7496 30.4773 23.0451C30.4773 28.3106 26.2177 32.5537 20.9319 32.5537C15.6459 32.5537 11.3864 28.3106 11.3864 23.0451C11.3864 18.7496 14.2213 15.1349 18.1354 13.9487L16.2805 12.101Z" fill="black"/>
    <path id="Vector_2" fill-rule="evenodd" clip-rule="evenodd" d="M15.5904 9.07979L16.9823 7H18.8491L17.4572 9.07979H15.5904ZM18.7722 9.07979L20.164 7H21.6996L23.0914 9.07979H18.7722ZM24.4066 9.07979L23.0147 7H24.8815L26.2734 9.07979H24.4066ZM18.9351 13.2039L15.889 10.1696H17.412L18.9351 13.2039ZM20.9319 14.7451L18.6352 10.1696L23.2285 10.1696L20.9319 14.7451ZM22.9287 13.2039L24.4517 10.1696H25.9747L22.9287 13.2039Z" fill="black"/>
    </g>
    </g>
</svg>
