<svg width="169" height="147" viewBox="0 0 169 147" fill="none" xmlns="http://www.w3.org/2000/svg">
<path id="vector" fill-rule="evenodd" clip-rule="evenodd" d="M62.6115 7.73684C52.5989 7.73684 44.4821 16.3966 44.4821 27.079C44.4821 37.7613 52.5989 46.4211 62.6115 46.4211C72.624 46.4211 80.7408 37.7613 80.7408 27.079C80.7408 16.3966 72.624 7.73684 62.6115 7.73684ZM37.2304 27.079C37.2304 12.1237 48.5939 0 62.6115 0C76.629 0 87.9925 12.1237 87.9925 27.079C87.9925 42.0342 76.629 54.1579 62.6115 54.1579C48.5939 54.1579 37.2304 42.0342 37.2304 27.079ZM117.73 61.234C116.407 59.0386 113.468 58.8421 111.898 60.844L74.7164 108.274C74.0689 109.1 73.1281 109.601 72.1201 109.656C71.1122 109.711 70.1284 109.315 69.4054 108.564L44.5788 82.7677C42.9536 81.079 40.2905 81.3794 39.0321 83.3932L7.87898 133.249C6.27259 135.82 7.99992 139.263 10.8959 139.263H158.105C160.973 139.263 162.706 135.877 161.155 133.303L117.73 61.234ZM106.336 55.8804C111.044 49.8745 119.861 50.4642 123.83 57.0502L167.255 129.119C171.908 136.843 166.711 147 158.105 147H10.8959C2.208 147 -2.97399 136.67 1.84518 128.957L32.9983 79.1016C36.7734 73.0601 44.7627 72.1591 49.6382 77.2251L71.663 100.11L106.336 55.8804Z" fill="white"/>
</svg>
