<svg width="102" height="108" viewBox="0 0 102 108" fill="none" xmlns="http://www.w3.org/2000/svg">
<g id="Group 39">
<rect id="Rectangle 34624819" y="0.495667" width="102" height="107" rx="4" fill="#E0E0E0"/>
<path id="vector" fill-rule="evenodd" clip-rule="evenodd" d="M45.1536 35.2105C42.2506 35.2105 39.8972 37.6847 39.8972 40.7368C39.8972 43.7889 42.2506 46.2632 45.1536 46.2632C48.0567 46.2632 50.41 43.7889 50.41 40.7368C50.41 37.6847 48.0567 35.2105 45.1536 35.2105ZM37.7946 40.7368C37.7946 36.4639 41.0894 33 45.1536 33C49.2179 33 52.5126 36.4639 52.5126 40.7368C52.5126 45.0098 49.2179 48.4737 45.1536 48.4737C41.0894 48.4737 37.7946 45.0098 37.7946 40.7368ZM61.1346 50.4954C60.7511 49.8682 59.8989 49.812 59.4439 50.384L48.6633 63.9355C48.4756 64.1715 48.2028 64.3145 47.9106 64.3302C47.6183 64.3459 47.3331 64.2328 47.1234 64.0182L39.9252 56.6479C39.454 56.1654 38.6819 56.2512 38.317 56.8266L29.2844 71.0711C28.8187 71.8056 29.3195 72.7895 30.1592 72.7895H72.841C73.6727 72.7895 74.1751 71.8221 73.7253 71.0865L61.1346 50.4954ZM57.8311 48.9658C59.1962 47.2499 61.7526 47.4183 62.9033 49.3001L75.4939 69.8912C76.8432 72.0979 75.3362 75 72.841 75H30.1592C27.6402 75 26.1377 72.0485 27.535 69.8449L36.5676 55.6004C37.6621 53.8743 39.9785 53.6169 41.3922 55.0643L44.6094 58.3584C46.2914 60.0807 49.1026 59.9378 50.6013 58.0538L57.8311 48.9658Z" fill="#8E9198"/>
</g>
</svg>
