<svg width="512" height="512" viewBox="0 0 512 512" fill="none" xmlns="http://www.w3.org/2000/svg">
<g clip-path="url(#clip0_2860_1353)">
<rect width="512" height="512" fill="white"/>
<circle cx="256" cy="256" r="244.528" stroke="black" stroke-width="22.9449"/>
<path d="M198.466 147.517C146.368 169.591 109.713 221.102 109.713 280.931C109.713 360.782 175.008 425.824 255.168 425.824C335.328 425.824 400.623 360.783 400.623 280.931C400.623 221.103 363.968 169.591 311.87 147.517L289.258 170.042C336.973 184.502 371.532 228.567 371.532 280.932C371.532 345.121 319.605 396.846 255.168 396.846C190.73 396.846 138.804 345.12 138.804 280.932C138.804 228.567 173.363 184.502 221.078 170.042L198.466 147.517Z" fill="black"/>
<path fill-rule="evenodd" clip-rule="evenodd" d="M190.053 110.688L207.021 85.334H229.778L212.81 110.688H190.053ZM228.841 110.688L245.807 85.334H264.528L281.493 110.688H228.841ZM297.526 110.688L280.558 85.334H303.316L320.284 110.688H297.526ZM230.826 160.963L193.693 123.973H212.259L230.826 160.963ZM255.168 179.75L227.171 123.973L283.165 123.973L255.168 179.75ZM279.51 160.963L298.077 123.973H316.643L279.51 160.963Z" fill="black"/>
</g>
<defs>
<clipPath id="clip0_2860_1353">
<rect width="512" height="512" fill="white"/>
</clipPath>
</defs>
</svg>
